Coordinates
version=1
nRows=29
nColumns=24
inDegrees=yes

Units are S.I. units (second, meters, Newtons, ...)
Angles are in degrees.

endheader
time	pelvis_tilt	pelvis_list	pelvis_rotation	pelvis_tx	pelvis_ty	pelvis_tz	hip_flexion_r	hip_adduction_r	hip_rotation_r	knee_angle_r	ankle_angle_r	subtalar_angle_r	mtp_angle_r	hip_flexion_l	hip_adduction_l	hip_rotation_l	knee_angle_l	ankle_angle_l	subtalar_angle_l	mtp_angle_l	lumbar_extension	lumbar_bending	lumbar_rotation
      1.08766667	     -2.14312404	      0.11907280	     -0.13845368	      0.02899200	      0.98080058	      0.32144564	    -18.50939276	      2.12372209	     -2.60496686	     -2.61098891	     12.54738691	     -3.35817514	      4.14022353	     23.02504194	      1.00358179	      1.66729763	      5.40099632	     -1.76932015	     -5.74632780	      2.87333147	    -11.09493636	      4.18794506	      8.32751022
      1.09183333	     -2.13990059	      0.28145033	     -0.13092347	      0.03498916	      0.97982147	      0.32086026	    -18.61888429	      1.88926461	     -2.84121153	     -3.17918869	     12.81317769	     -2.97502993	      4.34999895	     23.05958486	      1.26881012	      1.86287661	      5.23329094	     -1.99631982	     -6.01091394	      2.97348936	    -11.07285394	      3.99440912	      8.30680074
      1.09600000	     -2.14915859	      0.46058481	     -0.11687986	      0.04100202	      0.97885741	      0.32025703	    -18.68698518	      1.63563922	     -3.09231577	     -3.80926521	     13.08224417	     -2.59191946	      4.57675102	     23.12090146	      1.55383150	      2.08317275	      4.96495222	     -2.27369823	     -6.35251492	      3.07580135	    -11.02901929	      3.77215971	      8.27969393
      1.10016667	     -2.15353519	      0.66695695	     -0.10258030	      0.04703020	      0.97793922	      0.31963470	    -18.74465654	      1.35004175	     -3.33249032	     -4.47104709	     13.33819230	     -2.22033116	      4.80532963	     23.19033829	      1.86907130	      2.29873785	      4.60023774	     -2.61467607	     -6.74904277	      3.17326356	    -11.00292426	      3.53349092	      8.24464143
      1.10433333	     -2.16271080	      0.88397109	     -0.08573925	      0.05306537	      0.97704650	      0.31902012	    -18.76602559	      1.05237472	     -3.58071075	     -5.19857721	     13.57352323	     -1.86802046	      5.05346748	     23.27934874	      2.19398194	      2.53591718	      4.14234030	     -3.00060068	     -7.21082211	      3.27453960	    -10.96055905	      3.26381132	      8.20367960
      1.10850000	     -2.17674997	      1.11935416	     -0.06611825	      0.05910855	      0.97618358	      0.31838248	    -18.76203750	      0.73316455	     -3.81447786	     -5.96845609	     13.79339366	     -1.53332248	      5.31726581	     23.38826478	      2.54157016	      2.76714002	      3.59969650	     -3.44268552	     -7.72051573	      3.37575696	    -10.91628518	      2.98077580	      8.15650859
      1.11266667	     -2.19476276	      1.36371950	     -0.04210035	      0.06515264	      0.97534957	      0.31771785	    -18.72218825	      0.40024588	     -4.06593678	     -6.80216766	     13.96415365	     -1.21367419	      5.65805110	     23.51075299	      2.90047509	      3.03758074	      2.98681844	     -3.91070087	     -8.29954527	      3.50178081	    -10.88259625	      2.69334578	      8.10969778
      1.11683333	     -2.22693218	      1.62149531	     -0.02010603	      0.07120866	      0.97453918	      0.31707636	    -18.66368383	      0.05643306	     -4.25112962	     -7.64135156	     14.13671787	     -0.96448280	      5.95955953	     23.67775502	      3.27299255	      3.22060946	      2.27486653	     -4.45931925	     -8.86849735	      3.59975410	    -10.80712460	      2.37814966	      8.04704565
      1.12100000	     -2.25330313	      1.88964888	      0.01026304	      0.07725554	      0.97376281	      0.31639784	    -18.57761102	     -0.30126823	     -4.46051373	     -8.55016108	     14.25986703	     -0.71784718	      6.29652915	     23.84699028	      3.66129789	      3.44318904	      1.50870395	     -5.02142632	     -9.50738935	      3.69938077	    -10.76241195	      2.05700016	      7.98350266
      1.12516667	     -2.29899894	      2.15826916	      0.04318621	      0.08329304	      0.97300220	      0.31571492	    -18.44772433	     -0.65864909	     -4.63435946	     -9.50278537	     14.33819096	     -0.52985650	      6.65646068	     24.05644412	      4.05196639	      3.64578567	      0.67373845	     -5.60436861	    -10.15794206	      3.79262626	    -10.69041337	      1.73182922	      7.91852754
      1.12933333	     -2.29190307	      2.43624837	      0.09493914	      0.08934333	      0.97234206	      0.31502887	    -18.38313857	     -1.01237664	     -4.78080255	    -10.42131477	     14.23175799	     -0.57692678	     11.57287045	     24.20685104	      4.45918036	      3.90159834	     -0.18198076	     -6.22771351	    -10.90435152	      4.98998246	    -10.68733450	      1.39296211	      7.81786548
      1.13350000	     -2.36603868	      2.71466853	      0.12410772	      0.09536121	      0.97162056	      0.31434651	    -18.16581050	     -1.38413601	     -4.92005041	    -11.48151786	     14.23491794	     -0.42569216	     11.63740401	     24.49661866	      4.85820638	      3.98271566	     -1.16628775	     -6.76785030	    -11.43571887	      4.96869838	    -10.58071089	      1.04996342	      7.76921536
      1.13766667	     -2.41607616	      2.99270822	      0.16632073	      0.10137121	      0.97096444	      0.31365420	    -17.96077873	     -1.74686884	     -5.03409860	    -12.56401749	     14.17454253	     -0.37307602	     11.74564451	     24.75441331	      5.26277113	      4.13319728	     -2.15567726	     -7.33247703	    -12.08144177	      4.94098717	    -10.50791448	      0.70839812	      7.69237041
      1.14183333	     -2.44698801	      3.27705394	      0.21732215	      0.10737423	      0.97036334	      0.31293114	    -17.75575560	     -2.11516149	     -5.15335143	    -13.68240096	     14.03865287	     -0.34281249	     11.96189815	     24.99534618	      5.68164525	      4.32307303	     -3.17331671	     -7.83834791	    -12.79124737	      4.89375911	    -10.46552980	      0.35226607	      7.62074172
      1.14600000	     -2.50685826	      3.54695704	      0.25764265	      0.11334396	      0.96977408	      0.31224243	    -17.48697418	     -2.46579247	     -5.20185880	    -14.85135594	     13.85682014	     -0.42122700	     12.16409655	     25.28950582	      6.07649779	      4.41305919	     -4.23986834	     -8.35534132	    -13.36700476	      4.84395724	    -10.39191412	      0.02739384	      7.53493243
      1.15016667	     -2.55491133	      3.81784934	      0.30262807	      0.11930595	      0.96923550	      0.31154199	    -17.20407875	     -2.81588906	     -5.25045500	    -16.06487539	     13.60279161	     -0.52502448	     12.40911556	     25.57151360	      6.47658453	      4.52399766	     -5.32473966	     -8.79177115	    -13.95736329	      4.78185366	    -10.33422625	     -0.30744506	      7.45657739
      1.15433333	     -2.59724457	      4.08838105	      0.34445045	      0.12526142	      0.96874131	      0.31082983	    -16.90040322	     -3.16756984	     -5.28885136	    -17.31945804	     13.28554206	     -0.65436321	     12.73871557	     25.85016796	      6.87732734	      4.62468191	     -6.42880579	     -9.16309047	    -14.54679260	      4.69535649	    -10.28243552	     -0.64044799	      7.38615092
      1.15850000	     -2.58173064	      4.36761541	      0.38971674	      0.13121281	      0.96836485	      0.31012315	    -16.64475547	     -3.52256348	     -5.32272683	    -18.57736017	     12.81601431	     -0.93135143	     17.82789834	     26.05820311	      7.29073103	      4.73984249	     -7.53197596	     -9.41392842	    -15.10147900	      3.37885145	    -10.30709339	     -0.98900711	      7.27005788
      1.16266667	     -2.58086892	      4.65474371	      0.42784927	      0.13718341	      0.96801337	      0.30945142	    -16.35005067	     -3.88223137	     -5.32721753	    -19.87490542	     12.30361743	     -1.19232631	     17.85789990	     26.29267606	      7.70103163	      4.75147835	     -8.66844570	     -9.54837691	    -15.46588741	      3.36789845	    -10.30981228	     -1.36845715	      7.20076770
      1.16683333	     -2.63277827	      4.89037393	      0.44746319	      0.14305146	      0.96761279	      0.30874811	    -15.91474137	     -4.20654613	     -5.31799518	    -21.31450432	     11.79069375	     -1.41150777	     17.96681280	     26.57973995	      8.05881807	      4.80332424	     -9.79163701	     -9.70992734	    -15.92174200	      3.32913337	    -10.24528186	     -1.64164500	      7.15913063
      1.17100000	     -2.64274165	      5.13417257	      0.46965640	      0.14893597	      0.96731007	      0.30805845	    -15.51892234	     -4.53197686	     -5.29726562	    -22.74250839	     11.17724883	     -1.66094857	     18.20888859	     26.81973573	      8.42692902	      4.83615850	    -10.93014834	     -9.74110193	    -16.36217890	      3.24284594	    -10.24336570	     -1.94790161	      7.11734715
      1.17516667	     -2.64175673	      5.38558365	      0.47567772	      0.15480681	      0.96705901	      0.30737743	    -15.09624641	     -4.87228658	     -5.26650686	    -24.22290789	     10.49088878	     -1.96402585	     18.54880651	     27.03065779	      8.79545928	      4.84646338	    -12.03877697	     -9.68746250	    -16.71320521	      3.11885699	    -10.24642426	     -2.25917609	      7.06619663
      1.17933333	     -2.59390494	      5.66501160	      0.46667730	      0.16068208	      0.96691882	      0.30672852	    -14.68796517	     -5.24816633	     -5.25418753	    -25.75451863	      9.71632277	     -2.32217934	     18.79524250	     27.15010393	      9.18299402	      4.85066865	    -13.06431771	     -9.55390321	    -16.98172688	      3.02714478	    -10.29929198	     -2.60209346	      6.99723091
      1.18350000	     -2.53113065	      5.90693483	      0.45189920	      0.16651522	      0.96682490	      0.30607161	    -14.27618422	     -5.58534243	     -5.20912368	    -27.27582164	      8.82912358	     -2.72615031	     23.65242831	     27.27344781	      9.53485734	      4.82050056	    -14.15081402	     -9.23125044	    -17.19446219	      1.18847446	    -10.38336078	     -2.89566528	      6.95149531
      1.18766667	     -2.47564664	      6.17815179	      0.43322969	      0.17235066	      0.96676287	      0.30539834	    -13.81322846	     -5.96837735	     -5.21263821	    -28.87374838	      7.87761010	     -3.05507548	     23.68932349	     27.35598915	      9.91674282	      4.82193463	    -15.13058823	     -8.99302996	    -17.48841225	      1.17875433	    -10.44976077	     -3.21713211	      6.89937311
      1.19183333	     -2.38566190	      6.44929193	      0.39847851	      0.17816366	      0.96678327	      0.30476574	    -13.36449312	     -6.35144963	     -5.18388202	    -30.48379901	      6.88577639	     -3.37860085	     23.73396113	     27.38383941	     10.29160151	      4.80992102	    -16.08115182	     -8.64464474	    -17.73890711	      1.16475684	    -10.56517556	     -3.55990510	      6.83180368
      1.19600000	     -2.34574535	      6.68632987	      0.34904220	      0.18390647	      0.96676020	      0.30414204	    -12.80427865	     -6.70956762	     -5.13965576	    -32.16627967	      5.82916915	     -3.79494207	     23.85704608	     27.45964790	     10.61776866	      4.73029148	    -17.01011273	     -8.26988241	    -17.90063669	      1.11388844	    -10.60476927	     -3.82002346	      6.82611170
      1.20016667	     -2.26154458	      6.93365445	      0.29195493	      0.18964479	      0.96683917	      0.30354018	    -12.28102536	     -7.08039132	     -5.09158097	    -33.83554523	      4.69734367	     -4.18954718	     24.01852367	     27.46032992	     10.95217472	      4.65601482	    -17.89159842	     -7.81236075	    -18.04695787	      1.04160807	    -10.69652517	     -4.11870219	      6.79980150
      1.20433333	     -2.18835811	      7.15214658	      0.21542299	      0.19532926	      0.96694824	      0.30297612	    -11.71147671	     -7.42212339	     -4.99621587	    -35.52060661	      3.48202468	     -4.59786654	     24.36585204	     27.45171229	     11.24732735	      4.57712648	    -18.73391100	     -7.24602100	    -18.13286206	      0.86895616	    -10.78183811	     -4.37700451	      6.79969599
